<?xml version="1.0" encoding="UTF-8" standalone="no"?>
<!-- Created with Inkscape (http://www.inkscape.org/) -->

<svg
   xmlns:dc="http://purl.org/dc/elements/1.1/"
   xmlns:cc="http://creativecommons.org/ns#"
   xmlns:rdf="http://www.w3.org/1999/02/22-rdf-syntax-ns#"
   xmlns:svg="http://www.w3.org/2000/svg"
   xmlns="http://www.w3.org/2000/svg"
   xmlns:xlink="http://www.w3.org/1999/xlink"
   xmlns:sodipodi="http://sodipodi.sourceforge.net/DTD/sodipodi-0.dtd"
   xmlns:inkscape="http://www.inkscape.org/namespaces/inkscape"
   width="113.38583"
   height="113.38583"
   viewBox="0 0 30 29.999998"
   version="1.1"
   id="svg877"
   inkscape:version="0.92.4 (unknown)"
   sodipodi:docname="inventory.svg">
  <defs
     id="defs871">
    <linearGradient
       inkscape:collect="always"
       id="linearGradient901">
      <stop
         style="stop-color:#ffcf1c;stop-opacity:1"
         offset="0"
         id="stop897" />
      <stop
         style="stop-color:#ff9900;stop-opacity:1"
         offset="1"
         id="stop899" />
    </linearGradient>
    <linearGradient
       inkscape:collect="always"
       xlink:href="#linearGradient901"
       id="linearGradient903"
       x1="-38.925762"
       y1="291.30591"
       x2="-14.188276"
       y2="266.82217"
       gradientUnits="userSpaceOnUse"
       gradientTransform="matrix(1.2144288,0,0,1.2144288,47.394344,-56.963337)" />
  </defs>
  <sodipodi:namedview
     id="base"
     pagecolor="#ffffff"
     bordercolor="#666666"
     borderopacity="1.0"
     inkscape:pageopacity="0.0"
     inkscape:pageshadow="2"
     inkscape:zoom="2.8"
     inkscape:cx="130.31897"
     inkscape:cy="66.430269"
     inkscape:document-units="mm"
     inkscape:current-layer="layer1"
     showgrid="false"
     inkscape:window-width="1920"
     inkscape:window-height="1001"
     inkscape:window-x="0"
     inkscape:window-y="22"
     inkscape:window-maximized="1"
     inkscape:snap-global="false"
     units="px" />
  <metadata
     id="metadata874">
    <rdf:RDF>
      <cc:Work
         rdf:about="">
        <dc:format>image/svg+xml</dc:format>
        <dc:type
           rdf:resource="http://purl.org/dc/dcmitype/StillImage" />
        <dc:title />
      </cc:Work>
    </rdf:RDF>
  </metadata>
  <g
     inkscape:label="Capa 1"
     inkscape:groupmode="layer"
     id="layer1"
     transform="translate(0,-267)">
    <rect
       style="opacity:1;fill:url(#linearGradient903);fill-opacity:1;stroke:none;stroke-width:0.49515045;stroke-miterlimit:4;stroke-dasharray:none;stroke-dashoffset:41.34803009;stroke-opacity:1"
       id="rect895"
       width="30"
       height="30"
       x="9.2188515e-07"
       y="267" />
    <path
       style="opacity:1;fill:#ffffff;fill-opacity:1;stroke:none;stroke-width:0.38916126;stroke-miterlimit:4;stroke-dasharray:none;stroke-dashoffset:41.34803009;stroke-opacity:1"
       d="m 13.088384,53.518168 c -1.74822,1.119549 -2.544489,3.279442 -3.7323359,4.925973 -3.0721784,5.040192 -5.4686647,10.885146 -5.113404,16.886515 0.3594585,4.970928 3.0534984,9.513862 6.9235899,12.572157 4.713489,3.866086 10.771596,6.200975 16.914135,5.884265 8.501107,0.235047 16.476009,-3.578041 23.570883,-7.900623 2.132927,-1.258559 4.074266,-2.937993 6.101854,-4.263556 2.441039,2.076765 4.354159,4.760028 6.939867,6.649349 1.621611,0.650465 1.904867,-1.495255 1.951746,-2.581609 1.262133,-9.065805 2.630064,-18.130463 3.613465,-27.226768 -0.668658,-1.62717 -2.73863,-0.547043 -4.060869,-0.73453 -8.876822,0.585103 -17.770156,1.060157 -26.626459,1.870951 -1.657284,1.016612 0.277155,2.405794 1.029274,3.293423 1.559196,1.751176 3.287529,3.461297 4.695745,5.283009 -5.207915,4.322328 -11.020441,7.948879 -17.452753,10.170579 -3.623621,1.009815 -7.859756,1.532022 -11.233508,-0.468577 -3.328518,-2.419094 -4.721133,-6.717605 -4.415965,-10.707715 -0.199708,-4.209805 1.065226,-8.245003 2.184554,-12.240701 0.248618,-0.802864 -0.432377,-1.646785 -1.289819,-1.412142 z"
       id="path915"
       inkscape:connector-curvature="0"
       transform="matrix(0.26458333,0,0,0.26458333,0,267)" />
    <path
       style="fill:#161215;stroke-width:0.05784137"
       d="m 10.132092,293.2675 c 4.23e-4,-0.1511 0.03911,-0.4179 0.08607,-0.59287 0.108653,-0.40479 0.109516,-0.66105 0.0026,-0.74984 -0.06981,-0.0579 -0.114625,-0.0205 -0.2617411,0.21858 -0.2258719,0.3671 -0.3939455,0.47502 -0.8015494,0.51475 l -0.3274324,0.0319 0.1531719,-0.16676 c 0.2531751,-0.27563 0.454164,-0.60834 0.454164,-0.7518 0,-0.14612 -0.028838,-0.14678 -0.6073337,-0.014 -0.4743003,0.10899 -2.0479013,0.12697 -2.6028614,0.0298 -1.4809899,-0.25945 -2.7092782,-0.9026 -3.7635748,-1.97067 -0.5141036,-0.52082 -0.6169325,-0.66067 -0.877998,-1.19409 -0.3563154,-0.72804 -0.4860708,-1.27523 -0.4866176,-2.05212 -4.231e-4,-0.64532 0.065365,-1.0811 0.2698933,-1.78688 0.3719001,-1.28335 1.2766213,-2.84333 2.4379816,-4.20374 0.2355904,-0.27597 0.4247891,-0.5518 0.4247891,-0.61931 0,-0.25974 0.4211999,-1.7469 0.6743493,-2.38097 0.1464029,-0.36669 0.4970516,-1.12844 0.7792221,-1.69278 0.4757678,-0.95153 0.5130366,-1.05148 0.5130366,-1.37577 0,-0.33783 0.00414,-0.34748 0.1220322,-0.28438 0.1782154,0.0954 0.5319555,-0.0571 1.0550465,-0.45494 0.7686847,-0.58455 2.0620371,-1.69959 2.0620371,-1.77776 0,-0.0418 -0.09703,-0.15591 -0.2156225,-0.25366 l -0.2156247,-0.17774 0.172243,4.2e-4 c 0.094734,2e-4 0.2467965,0.0392 0.3379188,0.0868 0.2179284,0.11365 0.4776369,0.11113 0.5222321,-0.006 0.0571,-0.14882 0.03874,-0.49273 -0.045421,-0.85041 l -0.078724,-0.33456 0.150822,0.0988 c 0.235943,0.1546 0.345373,0.31345 0.452637,0.65707 0.05462,0.17498 0.102779,0.3246 0.107022,0.33249 0.0042,0.007 0.171553,-0.0522 0.371796,-0.13357 0.55102,-0.22389 1.630567,-0.52115 2.435116,-0.67049 0.61869,-0.11485 0.90637,-0.13359 2.050032,-0.13354 1.521398,6e-5 1.885075,0.0534 2.900306,0.42574 0.345411,0.12667 0.82271,0.2839 1.060666,0.34944 0.49248,0.13561 1.171854,0.15654 1.389356,0.0428 l 0.144603,-0.0756 -0.02003,0.31109 c -0.03205,0.4979 0.221793,0.65764 0.716572,0.45091 0.193407,-0.0808 0.198851,-0.0797 0.141006,0.0284 -0.06926,0.1294 -0.09232,0.47181 -0.03773,0.56013 0.07488,0.12117 0.425667,0.2394 0.826424,0.27855 l 0.411571,0.0402 -0.08535,0.17111 c -0.105171,0.21081 -0.06259,0.46053 0.127479,0.74775 0.131518,0.19873 0.154407,0.20959 0.389173,0.18443 0.246521,-0.0264 0.250605,-0.0238 0.349145,0.21566 0.09319,0.22652 0.112533,0.24087 0.295943,0.21945 0.191199,-0.0224 0.19894,-0.015 0.301519,0.28683 0.196427,0.57787 0.753433,1.04912 1.243623,1.05215 0.499997,0.003 1.333804,-0.65457 1.667178,-1.31498 0.266952,-0.52884 0.36015,-0.97723 0.262532,-1.2631 -0.114223,-0.3345 -0.33817,-0.50589 -0.612914,-0.46903 -0.19825,0.0265 -0.220915,0.0165 -0.220915,-0.0981 0,-0.0702 -0.0689,-0.26601 -0.153097,-0.43497 -0.260111,-0.52199 -0.810443,-0.77827 -1.369115,-0.63759 -0.480072,0.12089 -1.016234,0.71439 -1.026874,1.1367 -0.0077,0.30512 -0.103132,-0.0421 -0.10755,-0.39123 -0.01196,-0.94428 0.956152,-1.64127 2.280668,-1.64194 0.611031,-2.3e-4 0.899397,0.074 1.279686,0.32993 0.615273,0.41405 0.891062,1.00437 0.933889,1.99898 0.03025,0.70275 -0.0618,1.22947 -0.282895,1.61864 -0.05977,0.1052 -0.108725,0.20932 -0.108784,0.23135 -5.7e-5,0.0221 0.162622,0.0333 0.36151,0.025 l 0.361614,-0.0151 -0.269065,0.14339 c -0.376679,0.20074 -1.229591,1.06799 -1.139216,1.15837 0.01373,0.0137 0.160516,-0.0379 0.326192,-0.1146 0.165676,-0.0768 0.30123,-0.11673 0.30123,-0.0888 0,0.11219 -0.336928,0.43857 -0.867621,0.84047 -0.86358,0.654 -1.154989,1.07616 -1.107981,1.6051 0.01128,0.12682 0.187714,0.13141 0.420671,0.011 0.169022,-0.0874 0.172604,-0.0866 0.11281,0.0251 -0.07686,0.14361 -0.08028,0.50087 -0.0061,0.63943 0.0306,0.0571 0.135376,0.13698 0.232841,0.17736 0.143462,0.0593 0.169753,0.0967 0.138043,0.19591 -0.198461,0.62075 -0.23772,0.95335 -0.12574,1.06534 0.03817,0.0382 0.210873,0.0694 0.383768,0.0694 H 27.6152 l -0.166865,0.12645 c -0.09178,0.0696 -0.175665,0.13257 -0.186418,0.14006 -0.01076,0.007 0.0332,0.0873 0.09768,0.17721 0.115565,0.16129 0.270991,0.64355 0.2229,0.69164 -0.01358,0.0136 -0.09507,-0.002 -0.18109,-0.0347 -0.232478,-0.0884 -0.467319,-0.0723 -0.608188,0.0418 -0.104144,0.0843 -0.13394,0.19478 -0.177894,0.65938 -0.06346,0.67083 -0.131885,1.11131 -0.286139,1.84219 -0.132521,0.62791 -0.145213,0.9637 -0.05291,1.39981 0.07931,0.37469 0.189113,0.59753 0.382974,0.77719 0.130035,0.1205 0.134499,0.13649 0.03779,0.13524 -0.06032,-7.4e-4 -0.221322,-0.0272 -0.357789,-0.0586 -0.438978,-0.10126 -0.590914,0.0798 -0.452627,0.53922 l 0.08106,0.26936 -0.16384,-0.0848 c -0.09011,-0.0466 -0.197953,-0.13342 -0.239651,-0.19292 -0.101891,-0.14542 -0.277679,-0.077 -0.47838,0.18611 -0.178429,0.23393 -0.25642,0.73117 -0.158664,1.01159 0.04585,0.13155 0.04413,0.17031 -0.0069,0.15482 -0.343856,-0.10433 -0.366567,-0.0958 -0.612735,0.23026 -0.645514,0.85498 -1.649531,1.82962 -2.665574,2.58759 -0.35006,0.26114 -0.458768,0.3732 -0.429366,0.44261 0.02165,0.0511 0.05205,0.15139 0.06754,0.22284 0.03509,0.16174 -0.03703,0.76664 -0.09141,0.76664 -0.02202,0 -0.104521,-0.10437 -0.183352,-0.2319 -0.07883,-0.12756 -0.191378,-0.24717 -0.250108,-0.26581 -0.254199,-0.0807 -0.686313,-0.0157 -1.343425,0.20196 -0.823207,0.27272 -1.985908,0.49805 -3.060775,0.59321 -1.627489,0.14409 -3.608087,-0.17836 -5.039006,-0.82038 -0.209845,-0.0941 -0.392122,-0.17117 -0.405064,-0.17117 -0.01294,0 -0.02352,0.0559 -0.02352,0.12427 0,0.10818 -0.673185,1.3796 -0.730461,1.3796 -0.0118,0 -0.02117,-0.12363 -0.02079,-0.27475 z m 6.940279,-0.84436 c 3.437327,-0.60552 6.294328,-2.73771 7.857617,-5.86417 1.592266,-3.18442 1.431835,-7.1796 -0.411745,-10.25346 -1.645919,-2.74428 -4.394546,-4.59913 -7.590475,-5.12225 -1.224554,-0.20044 -2.9766,-0.11443 -4.279908,0.21012 -3.0258375,0.75346 -5.7518544,2.99002 -7.0446186,5.77977 -0.730714,1.57685 -1.0330823,2.94087 -1.0321573,4.65622 0.0011,2.07999 0.4846519,3.80185 1.5796478,5.62507 0.2525526,0.42051 0.3063333,0.47719 0.4528172,0.47719 0.091426,0 0.1808017,-0.0236 0.19861,-0.0523 0.017819,-0.0288 -0.085202,-0.23054 -0.2289138,-0.44827 -1.7358927,-2.62996 -2.1357711,-6.11702 -1.0455215,-9.11727 1.4921128,-4.10615 5.3400732,-6.80903 9.6937232,-6.80903 3.938218,0 7.466329,2.20061 9.248344,5.76852 1.268801,2.54035 1.39362,5.68433 0.330679,8.32917 -0.302199,0.75194 -0.361227,0.87202 -0.746944,1.51949 -1.369369,2.29867 -3.696468,4.03348 -6.287058,4.6869 -0.910775,0.22972 -1.494699,0.29832 -2.545021,0.29895 -1.438093,7.4e-4 -2.568958,-0.20897 -3.803349,-0.70572 l -0.552483,-0.22233 -0.256005,0.10056 -0.256005,0.10055 0.395012,0.18118 c 0.962777,0.44156 2.042802,0.75841 3.093124,0.90742 0.740351,0.10505 2.516158,0.0797 3.23063,-0.0462 z m -8.0145384,-0.96028 c 1.9265474,-0.40372 4.0161044,-1.43491 5.8279404,-2.87608 0.21304,-0.16946 0.409667,-0.30809 0.436949,-0.30809 0.02729,0 0.473298,0.45549 0.991144,1.01222 0.517847,0.55671 0.960107,1.01222 0.982802,1.01222 0.03585,0 1.112052,-7.81532 1.081108,-7.85101 -0.02057,-0.0238 -7.863431,0.50783 -7.890372,0.53477 -0.02827,0.0283 0.141036,0.21899 1.145228,1.28995 0.367305,0.39172 0.674817,0.73154 0.683361,0.75515 0.01825,0.0505 -0.508234,0.47566 -1.201285,0.97026 -2.8154995,2.00927 -5.1012959,2.66649 -6.6512012,1.91239 -0.3945398,-0.19198 -0.8682437,-0.70331 -1.112487,-1.20089 -0.3155415,-0.64281 -0.4144248,-1.23054 -0.3736335,-2.22079 0.045546,-1.10571 0.1849507,-1.72184 0.7597129,-3.35769 0.070861,-0.20168 -0.2968392,0.25309 -0.7548819,0.93363 -1.6068604,2.38739 -2.05048128,4.59429 -1.2671994,6.304 0.7034557,1.53547 2.499563,2.7983 4.5120951,3.17242 0.6459469,0.12008 2.0608977,0.0788 2.8307196,-0.0824 z m -3.2130761,-3.69029 c -0.072328,-0.1193 -0.1587984,-0.26245 -0.1921544,-0.31813 -0.033359,-0.0556 -0.1153687,-0.10122 -0.1822424,-0.10122 -0.2218922,0 -0.5878875,-0.2557 -0.8862027,-0.61916 -0.3011088,-0.36685 -0.5291615,-0.48005 -0.8159906,-0.40504 -0.063248,0.0165 -0.1149947,0.008 -0.1149947,-0.0175 0,-0.0731 0.519643,-0.51421 0.7986502,-0.67795 0.18069,-0.10604 0.2391232,-0.17199 0.2126513,-0.23999 -0.1066371,-0.27394 -0.3790223,-1.45145 -0.4636955,-2.00452 -0.053755,-0.35112 -0.100829,-1.0266 -0.1054502,-1.51309 -0.00966,-1.017 -0.018056,-1.01515 -0.3824287,0.0842 -0.3685597,1.11201 -0.4935365,1.81855 -0.4935365,2.7901 0,0.92196 0.060987,1.26189 0.3288749,1.8331 0.39964,0.85214 1.2231905,1.38962 2.1485598,1.40221 l 0.279464,0.004 z"
       id="path855-3"
       inkscape:connector-curvature="0"
       sodipodi:nodetypes="cccccccsscsscscscssccscccccsccccccsccccccccscccccccccccsscccccsccccccssccccccccscccscccssccccsccccscccccscccccsssccssssccccsccsssssccscccccsccscsccscsscccssccccsscscccccscccc" />
  </g>
</svg>
